PathFileType	4	(X/Y/Z)	C:/Users/opensim2020/Desktop/walking_exp_matlab/subject06_walking13_straight_01.trc	
DataRate	CameraRate	NumFrames	NumMarkers	Units	OrigDataRate	OrigDataStartFrame	OrigNumFrames	
100.00	100.00	4	50	mm	100.00	889	163	
Frame#	Time	LFHD			RFHD			LBHD			RBHD			C7			T10			CLAV			STRN			RBAK			LSHO			LUPA			LELB			LFRM			LWRA			LWRB			LFIN			RSHO			RUPA			RELB			RFRM			RWRA			RWRB			RFIN			LASI			RASI			LPSI			RPSI			LTHI			LKNE			LTIB			LANK			LHEE			LTOE			RTHI			RKNE			RTIB			RANK			RHEE			RTOE			*39			*40			*41			*42			*43			*44			*45			*46			*47			*48			*49			
		X1	Y1	Z1	X2	Y2	Z2	X3	Y3	Z3	X4	Y4	Z4	X5	Y5	Z5	X6	Y6	Z6	X7	Y7	Z7	X8	Y8	Z8	X9	Y9	Z9	X10	Y10	Z10	X11	Y11	Z11	X12	Y12	Z12	X13	Y13	Z13	X14	Y14	Z14	X15	Y15	Z15	X16	Y16	Z16	X17	Y17	Z17	X18	Y18	Z18	X19	Y19	Z19	X20	Y20	Z20	X21	Y21	Z21	X22	Y22	Z22	X23	Y23	Z23	X24	Y24	Z24	X25	Y25	Z25	X26	Y26	Z26	X27	Y27	Z27	X28	Y28	Z28	X29	Y29	Z29	X30	Y30	Z30	X31	Y31	Z31	X32	Y32	Z32	X33	Y33	Z33	X34	Y34	Z34	X35	Y35	Z35	X36	Y36	Z36	X37	Y37	Z37	X38	Y38	Z38	X39	Y39	Z39	X40	Y40	Z40	X41	Y41	Z41	X42	Y42	Z42	X43	Y43	Z43	X44	Y44	Z44	X45	Y45	Z45	X46	Y46	Z46	X47	Y47	Z47	X48	Y48	Z48	X49	Y49	Z49	X50	Y50	Z50	

41	0.400	-1084.25330	-452.77902	1658.80688	-953.33276	-464.47830	1648.26636	-1096.37061	-586.64899	1607.54639	-967.46295	-596.61060	1602.79224	-1034.87537	-596.28693	1450.05334	-1020.99170	-641.47485	1123.09717	-1027.81714	-487.71094	1369.52734	-1025.64954	-451.81317	1194.51807	-949.06537	-675.59174	1286.15601	-1192.44458	-536.56671	1400.99194	-1262.63037	-571.48431	1202.95178	-1273.14026	-599.56305	1093.84680	-1295.05383	-599.55151	942.92719	-1249.21716	-560.37140	820.12250	-1292.22815	-617.76996	825.34930	-1288.15283	-592.11621	737.73700	-870.12207	-534.77960	1408.27014	-772.64636	-576.61304	1216.08948	-754.78748	-568.35120	1094.75513	-736.25952	-535.55560	979.65607	-770.30585	-452.78790	854.04730	-727.86017	-504.54944	846.39911	-726.02838	-453.90076	779.41425	-1113.18042	-453.36316	965.01923	-896.30945	-478.30563	964.58594	-1101.72754	-613.69629	990.04901	-934.54291	-624.48822	986.09857	-1180.26135	-488.66071	649.85986	-1153.90295	-467.70990	488.79376	-1139.54675	-473.54892	230.91766	-1090.06726	-456.88699	62.28855	-1044.00598	-497.04404	49.02800	-1081.86731	-310.95377	36.92699	-844.98334	-510.63766	621.23444	-859.76373	-491.95584	495.39478	-866.12048	-683.40302	326.78836	-912.05951	-836.10339	224.64714	-959.24933	-867.62384	249.78720	-921.00250	-821.55957	62.25667	-1034.51794	-556.79297	1699.90723																														 
42	0.410	-1084.75391	-441.96881	1660.02307	-953.92865	-453.92972	1649.41077	-1097.15002	-575.91980	1608.64648	-968.20349	-586.01532	1603.83057	-1035.80200	-585.52850	1451.23877	-1022.23419	-630.92651	1124.11499	-1028.30872	-477.08676	1370.67126	-1026.24133	-441.41760	1195.42371	-950.92126	-665.37762	1287.27625	-1193.21997	-525.19214	1402.07581	-1263.99817	-557.85486	1203.57361	-1275.10291	-584.15558	1094.11121	-1297.13525	-580.61121	943.22571	-1250.95374	-538.66321	821.54163	-1294.17871	-596.00085	825.23981	-1290.02856	-567.85822	738.34314	-870.67529	-524.70642	1409.09277	-773.72235	-567.67548	1216.75891	-756.16565	-560.29340	1095.17810	-737.38086	-530.69940	979.16406	-770.86572	-451.80490	850.89294	-728.71063	-503.45480	844.69806	-726.76447	-455.43079	776.13928	-1113.82349	-443.38483	965.65216	-896.46710	-468.36877	965.67242	-1102.63757	-603.66400	991.12817	-935.53302	-614.25507	986.82135	-1180.81653	-482.73447	650.45123	-1154.89709	-464.71234	488.72134	-1139.82922	-473.12265	231.07610	-1090.19421	-457.26215	62.28693	-1044.28369	-497.27942	48.98730	-1081.87256	-310.90158	36.71628	-845.87347	-494.35193	622.95813	-860.73828	-472.10022	497.76059	-865.47681	-662.00586	328.28888	-911.47827	-816.26062	228.86053	-958.77179	-848.95361	252.58313	-918.00739	-797.85242	66.55536	-1035.19775	-546.16150	1701.03369																														 
43	0.420	-1085.31689	-431.42886	1661.00720	-954.41144	-443.43307	1650.45605	-1097.82727	-565.15869	1609.73364	-968.94659	-575.52460	1604.84937	-1036.67786	-574.92493	1452.34912	-1023.32227	-620.54858	1125.01563	-1028.80920	-466.56857	1371.61584	-1026.74609	-430.86813	1196.39050	-952.77380	-655.15277	1288.18677	-1193.89136	-513.88678	1402.78870	-1265.42847	-544.15466	1204.01318	-1277.32166	-568.54108	1094.18616	-1299.12427	-561.50793	943.42285	-1252.69104	-516.77411	822.91736	-1295.93872	-574.10175	825.02863	-1292.01013	-543.33142	739.17377	-871.13123	-514.73114	1409.77625	-774.79510	-558.72882	1217.22107	-757.47919	-552.39874	1095.49084	-738.51630	-525.84033	978.70892	-771.51801	-450.89407	847.83752	-729.21680	-502.66177	843.46814	-727.46680	-456.87280	773.22235	-1114.57324	-433.80096	966.20557	-896.88409	-458.21979	966.66431	-1103.33447	-593.84845	992.17285	-935.99292	-604.52820	987.70813	-1181.37024	-476.79688	651.00055	-1155.84875	-461.76221	488.79126	-1140.45032	-472.47830	231.33698	-1090.78186	-457.10413	62.66865	-1044.34790	-497.55762	48.97985	-1082.06665	-310.85168	36.46880	-846.66071	-478.30161	624.91211	-861.49854	-452.80936	500.49841	-865.72205	-641.52002	330.82599	-910.79590	-795.54797	231.70117	-957.92700	-830.32629	253.41325	-914.38824	-770.99487	70.64532	-1035.80200	-535.55243	1702.09338																														 
44	0.430	-1085.73608	-420.73328	1661.98096	-954.89996	-432.94952	1651.40759	-1098.39783	-554.42310	1610.76331	-969.58673	-565.01624	1605.77332	-1037.48657	-564.43127	1453.39905	-1024.33984	-610.33673	1125.84509	-1029.18140	-456.17188	1372.43604	-1027.26770	-420.77325	1197.16028	-954.48669	-645.09631	1288.95654	-1194.45215	-502.63147	1403.39514	-1266.81860	-530.43225	1204.21436	-1279.32739	-552.89758	1093.89038	-1301.02832	-542.21234	943.46967	-1254.42908	-494.58899	824.30157	-1297.60229	-551.97797	824.79724	-1293.99109	-518.59412	740.04187	-871.52893	-504.91464	1410.37390	-775.81293	-549.99579	1217.64795	-758.83276	-544.55951	1095.77722	-739.61505	-521.03259	978.31079	-772.20416	-450.02225	845.09503	-729.72192	-501.82590	842.36823	-728.06677	-458.44205	770.61359	-1115.40247	-424.23752	966.87109	-897.50671	-447.92166	967.70081	-1103.61865	-584.42090	993.39539	-936.41840	-594.51099	988.50610	-1181.30200	-472.14688	651.20203	-1156.87402	-458.80728	489.02783	-1141.15991	-471.50668	231.61394	-1091.01184	-457.18106	62.72194	-1044.66602	-497.63846	49.08479	-1082.18835	-310.79694	36.20017	-847.34766	-462.54810	627.07910	-862.51984	-433.78448	503.35034	-866.52911	-621.24829	333.82346	-909.89258	-774.30145	232.90038	-956.66455	-811.07184	252.57053	-911.29248	-742.27515	73.73633	-1036.46680	-524.93549	1703.04346																														 
